<?xml version="1.0" encoding="utf-8"?>
<!-- Generator: Adobe Illustrator 23.0.1, SVG Export Plug-In . SVG Version: 6.00 Build 0)  -->
<svg version="1.1" id="_ÎÓÈ_1" xmlns="http://www.w3.org/2000/svg" xmlns:xlink="http://www.w3.org/1999/xlink" x="0px" y="0px"
	 viewBox="0 0 393.8 310.4" style="enable-background:new 0 0 393.8 310.4;" xml:space="preserve">
<style type="text/css">
	.st0{opacity:0.4;}
	.st1{fill:#FFFFFF;}
	.st2{fill:#47565F;}
	.st3{fill:#313B42;}
	.st4{fill:none;}
	.st5{fill:#3C4850;}
	.st6{fill:#262E33;}
	.st7{fill:#687E8B;}
	.st8{fill:#D4ECFF;}
	.st9{fill:#FFD957;}
	.st10{opacity:0.4;fill:#FFFFFF;enable-background:new    ;}
	.st11{clip-path:url(#SVGID_2_);}
	.st12{opacity:0.35;fill:#FFD957;}
	.st13{fill:#F5CF4D;}
	.st14{fill:#79B1E0;}
</style>
<g class="st0">
	<path class="st1" d="M355.9,92.2l-0.3-0.2l-31-17.9L356,56.1l31.3,18L355.9,92.2z M326.9,74.1l29.1,16.8L385,74.1l-29.1-16.8
		L326.9,74.1z"/>
	<path class="st1" d="M295.6,92.2l-31.3-18.1L295.6,56l31.3,18.1L295.6,92.2z M266.5,74.1l29.1,16.8l29.1-16.8l-29.1-16.8
		L266.5,74.1z"/>
	<path class="st1" d="M325.8,109.6l-0.3-0.2l-31-17.9l31.3-18.1l0.3,0.2l31,17.9L325.8,109.6z M296.7,91.5l29.1,16.8l29.1-16.8
		l-29.1-16.8L296.7,91.5z"/>
	<path class="st1" d="M355.9,127l-0.3-0.2l-31-17.9L356,90.9l0.3,0.2l31,17.9L355.9,127z M326.9,108.9l29.1,16.8l29.1-16.8
		l-29.1-16.8L326.9,108.9z"/>
	<path class="st1" d="M235.2,92.2l-0.3-0.2l-31-17.9l31.3-18.1l31.3,18L235.2,92.2z M206.2,74.1l29.1,16.8l29.1-16.8l-29.1-16.8
		L206.2,74.1z"/>
	<path class="st1" d="M265.4,109.6l-31.3-18.1l31.3-18.1l31.3,18.1L265.4,109.6z M236.4,91.5l29,16.8l29.1-16.8l-29.1-16.8
		L236.4,91.5z"/>
	<path class="st1" d="M295.6,127l-31.3-18.1l31.3-18.1l0.3,0.2l31,17.9L295.6,127z M266.5,108.9l29.1,16.8l29.1-16.8l-29.1-16.8
		L266.5,108.9z"/>
	<path class="st1" d="M325.8,144.4l-0.3-0.2l-31-17.9l31.3-18.1l0.3,0.2l31,17.9L325.8,144.4z M296.7,126.4l29.1,16.8l29.1-16.8
		l-29.1-16.8L296.7,126.4z"/>
	<path class="st1" d="M355.9,161.9l-0.3-0.2l-31-17.9l31.3-18.1l0.3,0.2l31,17.9L355.9,161.9z M326.9,143.8l29.1,16.8l29.1-16.8
		L355.9,127L326.9,143.8z"/>
	<path class="st1" d="M174.9,92.2l-0.3-0.2l-31-17.9L174.9,56l0.3,0.2l31,17.9L174.9,92.2z M145.8,74.1l29.1,16.8l29.1-16.8
		l-29.1-16.8L145.8,74.1z"/>
	<path class="st1" d="M205,109.6l-0.3-0.2l-31-17.9l31.3-18.1l0.3,0.2l31,17.9L205,109.6z M176,91.5l29.1,16.8l29.1-16.8L205,74.7
		L176,91.5z"/>
	<path class="st1" d="M235.2,127l-0.3-0.2l-31-17.9l31.3-18.1l31.3,18.1L235.2,127z M206.2,108.9l29.1,16.8l29.1-16.8l-29.1-16.8
		L206.2,108.9z"/>
	<path class="st1" d="M265.4,144.4l-31.3-18.1l31.3-18.1l31.3,18.1L265.4,144.4z M236.4,126.4l29,16.8l29.1-16.8l-29.1-16.8
		L236.4,126.4z"/>
	<path class="st1" d="M295.6,161.9l-31.3-18.1l31.3-18.1l0.3,0.2l31,17.9L295.6,161.9z M266.5,143.8l29.1,16.8l29.1-16.8L295.6,127
		L266.5,143.8z"/>
	<path class="st1" d="M325.8,179.3l-0.3-0.2l-31-17.9l31.3-18l0.3,0.2l31,17.9L325.8,179.3z M296.7,161.2l29.1,16.8l29.1-16.8
		l-29.1-16.8L296.7,161.2z"/>
	<path class="st1" d="M355.9,196.7l-0.3-0.2l-31-17.9l31.3-18.1l0.3,0.2l31,17.9L355.9,196.7z M326.9,178.6l29.1,16.8l29.1-16.8
		l-29.1-16.8L326.9,178.6z"/>
	<path class="st1" d="M114.5,92.2l-0.3-0.2l-31-17.9l31.3-18.1l31.3,18L114.5,92.2z M85.5,74.1l29.1,16.8l29.1-16.8l-29.1-16.8
		L85.5,74.1z"/>
	<path class="st1" d="M144.7,109.6l-0.3-0.2l-31-17.9l31.3-18.1l0.3,0.2l31,17.9L144.7,109.6z M115.6,91.5l29.1,16.8l29.1-16.8
		l-29.1-16.8L115.6,91.5z"/>
	<path class="st1" d="M174.9,127l-31.3-18.1l31.3-18.1l0.3,0.2l31,17.9L174.9,127z M145.8,108.9l29.1,16.8l29.1-16.8l-29.1-16.8
		L145.8,108.9z"/>
	<path class="st1" d="M205,144.4l-0.3-0.2l-31-17.9l31.3-18.1l0.3,0.2l31,17.9L205,144.4z M176,126.4l29.1,16.8l29.1-16.8L205,109.6
		L176,126.4z"/>
	<path class="st1" d="M235.2,161.8l-31.3-18.1l31.3-18.1l31.3,18.1L235.2,161.8z M206.2,143.8l29.1,16.8l29.1-16.8L235.2,127
		L206.2,143.8z"/>
	<path class="st1" d="M265.4,179.3l-0.3-0.2l-31-17.9l31.3-18l31.3,18L265.4,179.3z M236.4,161.2l29,16.8l29.1-16.8l-29.1-16.8
		L236.4,161.2z"/>
	<path class="st1" d="M295.6,196.7l-0.3-0.2l-31-17.9l31.3-18.1l0.3,0.2l31,17.9L295.6,196.7z M266.5,178.6l29.1,16.8l29.1-16.8
		l-29.1-16.8L266.5,178.6z"/>
	<path class="st1" d="M325.8,214.1l-31.3-18.1l31.3-18.1l0.3,0.2l31,17.9L325.8,214.1z M296.7,196.1l29.1,16.8l29.1-16.8l-29.1-16.8
		L296.7,196.1z"/>
	<path class="st1" d="M355.9,231.5l-0.3-0.2l-31-17.9l31.3-18.1l0.3,0.2l31,17.9L355.9,231.5z M326.9,213.5l29.1,16.8l29.1-16.8
		l-29.1-16.8L326.9,213.5z"/>
	<path class="st1" d="M54.2,92.2L22.9,74.1L54.2,56l0.3,0.2l31,17.9L54.2,92.2z M25.1,74.1l29.1,16.8l29.1-16.8L54.2,57.3L25.1,74.1
		z"/>
	<path class="st1" d="M84.4,109.6l-0.3-0.2l-31-17.9l31.3-18.1l0.3,0.2l31,17.9L84.4,109.6z M55.3,91.5l29.1,16.8l29-16.8l-29-16.8
		L55.3,91.5z"/>
	<path class="st1" d="M114.5,127l-0.3-0.2l-31-17.9l31.3-18.1l0.3,0.2l31,17.9L114.5,127z M85.5,108.9l29.1,16.8l29.1-16.8
		l-29.1-16.8L85.5,108.9z"/>
	<path class="st1" d="M144.7,144.4l-0.3-0.2l-31-17.9l31.3-18.1l31.3,18.1L144.7,144.4z M115.6,126.4l29.1,16.8l29.1-16.8
		l-29.1-16.8L115.6,126.4z"/>
	<path class="st1" d="M174.9,161.8l-0.3-0.2l-31-17.9l31.3-18.1l0.3,0.2l31,17.9L174.9,161.8z M145.8,143.8l29.1,16.8l29.1-16.8
		L174.9,127L145.8,143.8z"/>
	<path class="st1" d="M205,179.3l-31.3-18.1l31.3-18l31.3,18L205,179.3z M176,161.2L205,178l29.1-16.8L205,144.4L176,161.2z"/>
	<path class="st1" d="M235.2,196.7l-0.3-0.2l-31-17.9l31.3-18.1l0.3,0.2l31,17.9L235.2,196.7z M206.2,178.6l29.1,16.8l29.1-16.8
		l-29.1-16.8L206.2,178.6z"/>
	<path class="st1" d="M265.4,214.1l-0.3-0.2l-31-17.9l31.3-18.1l0.3,0.2l31,17.9L265.4,214.1z M236.4,196.1l29,16.8l29.1-16.8
		l-29.1-16.8L236.4,196.1z"/>
	<path class="st1" d="M295.6,231.5l-0.3-0.2l-31-17.9l31.3-18.1l31.3,18.1L295.6,231.5z M266.5,213.5l29.1,16.8l29.1-16.8
		l-29.1-16.8L266.5,213.5z"/>
	<path class="st1" d="M325.8,249l-0.3-0.2l-31-17.9l31.3-18.1l0.3,0.2l31,17.9L325.8,249z M296.7,230.9l29.1,16.8l29.1-16.8
		l-29.1-16.8L296.7,230.9z"/>
	<path class="st1" d="M355.9,266.4l-31.3-18.1l31.3-18.1l0.3,0.2l31,17.9L355.9,266.4z M326.9,248.3l29.1,16.8l29.1-16.8l-29.1-16.8
		L326.9,248.3z"/>
	<path class="st1" d="M54.2,127l-31.3-18.1l31.3-18.1l0.3,0.2l31,17.9L54.2,127z M25.1,108.9l29.1,16.8l29.1-16.8L54.2,92.2
		L25.1,108.9z"/>
	<path class="st1" d="M84.4,144.4l-0.3-0.2l-31-17.9l31.3-18.1l0.3,0.2l31,17.9L84.4,144.4z M55.3,126.4l29.1,16.8l29-16.8l-29-16.8
		L55.3,126.4z"/>
	<path class="st1" d="M114.5,161.8l-0.3-0.2l-31-17.9l31.3-18.1l0.3,0.2l31,17.9L114.5,161.8z M85.5,143.8l29.1,16.8l29.1-16.8
		L114.5,127L85.5,143.8z"/>
	<path class="st1" d="M144.7,179.3l-0.3-0.2l-31-17.9l31.3-18l0.3,0.2l31,17.9L144.7,179.3z M115.6,161.2l29.1,16.8l29.1-16.8
		l-29.1-16.8L115.6,161.2z"/>
	<path class="st1" d="M174.9,196.7l-31.3-18.1l31.3-18.1l31.3,18.1L174.9,196.7z M145.8,178.6l29.1,16.8l29.1-16.8l-29.1-16.8
		L145.8,178.6z"/>
	<path class="st1" d="M205,214.1l-31.3-18.1L205,178l0.3,0.2l31,17.9L205,214.1z M176,196.1l29.1,16.8l29.1-16.8L205,179.3
		L176,196.1z"/>
	<path class="st1" d="M235.2,231.5l-0.3-0.2l-31-17.9l31.3-18.1l0.3,0.2l31,17.9L235.2,231.5z M206.2,213.5l29.1,16.8l29.1-16.8
		l-29.1-16.8L206.2,213.5z"/>
	<path class="st1" d="M265.4,249l-0.3-0.2l-31-17.9l31.3-18.1l0.3,0.2l31,17.9L265.4,249z M236.4,230.9l29,16.8l29.1-16.8
		l-29.1-16.8L236.4,230.9z"/>
	<path class="st1" d="M295.6,266.4l-0.3-0.2l-31-17.9l31.3-18.1l0.3,0.2l31,17.9L295.6,266.4z M266.5,248.3l29.1,16.8l29.1-16.8
		l-29.1-16.8L266.5,248.3z"/>
	<path class="st1" d="M325.8,283.8l-0.3-0.2l-31-17.9l31.3-18.1l31.3,18.1L325.8,283.8z M296.7,265.7l29.1,16.8l29.1-16.8L325.8,249
		L296.7,265.7z"/>
	<path class="st1" d="M355.9,301.2l-31.3-18l31.3-18.1l0.3,0.2l31,17.9L355.9,301.2z M326.9,283.2l29.1,16.8l29.1-16.8l-29.1-16.8
		L326.9,283.2z"/>
	<path class="st1" d="M54.2,161.8l-0.3-0.2l-31-17.9l31.3-18.1l0.3,0.2l31,17.9L54.2,161.8z M25.1,143.8l29.1,16.8l29.1-16.8
		L54.2,127L25.1,143.8z"/>
	<path class="st1" d="M84.4,179.3l-31.3-18.1l31.3-18l0.3,0.2l31,17.9L84.4,179.3z M55.3,161.2L84.4,178l29-16.8l-29-16.8
		L55.3,161.2z"/>
	<path class="st1" d="M114.5,196.7l-0.3-0.2l-31-17.9l31.3-18.1l0.3,0.2l31,17.9L114.5,196.7z M85.5,178.6l29.1,16.8l29.1-16.8
		l-29.1-16.8L85.5,178.6z"/>
	<path class="st1" d="M144.7,214.1l-0.3-0.2l-31-17.9l31.3-18.1l31.3,18.1L144.7,214.1z M115.6,196.1l29.1,16.8l29.1-16.8
		l-29.1-16.8L115.6,196.1z"/>
	<path class="st1" d="M174.9,231.5l-31.3-18.1l31.3-18.1l31.3,18.1L174.9,231.5z M145.8,213.5l29.1,16.8l29.1-16.8l-29.1-16.8
		L145.8,213.5z"/>
	<path class="st1" d="M205.1,249l-0.3-0.2l-31-17.9l31.3-18.1l0.3,0.2l31,17.9L205.1,249z M176,230.9l29.1,16.8l29.1-16.8
		l-29.1-16.8L176,230.9z"/>
	<path class="st1" d="M235.2,266.4l-31.3-18.1l31.3-18.1l0.3,0.2l31,17.9L235.2,266.4z M206.2,248.3l29.1,16.8l29.1-16.8l-29.1-16.8
		L206.2,248.3z"/>
	<path class="st1" d="M265.4,283.8l-0.3-0.2l-31-17.9l31.3-18.1l0.3,0.2l31,17.9L265.4,283.8z M236.4,265.7l29,16.8l29.1-16.8
		L265.4,249L236.4,265.7z"/>
	<path class="st1" d="M295.6,301.2l-0.3-0.2l-31-17.9l31.3-18.1l0.3,0.2l31,17.9L295.6,301.2z M266.5,283.2l29.1,16.8l29.1-16.8
		l-29.1-16.8L266.5,283.2z"/>
	<path class="st1" d="M54.2,196.7l-0.3-0.2l-31-17.9l31.3-18.1l31.3,18.1L54.2,196.7z M25.1,178.6l29.1,16.8l29.1-16.8l-29.1-16.8
		L25.1,178.6z"/>
	<path class="st1" d="M84.4,214.1l-0.3-0.2l-31-17.9L84.4,178l0.3,0.2l31,17.9L84.4,214.1z M55.3,196.1l29.1,16.8l29.1-16.8
		l-29.1-16.8L55.3,196.1z"/>
	<path class="st1" d="M114.5,231.5l-31.3-18.1l31.3-18.1l0.3,0.2l31,17.9L114.5,231.5z M85.5,213.5l29.1,16.8l29.1-16.8l-29.1-16.8
		L85.5,213.5z"/>
	<path class="st1" d="M144.7,249l-31.3-18.1l31.3-18.1l31.3,18.1L144.7,249z M115.6,230.9l29.1,16.8l29.1-16.8l-29.1-16.8
		L115.6,230.9z"/>
	<path class="st1" d="M174.9,266.4l-0.3-0.2l-31-17.9l31.3-18.1l0.3,0.2l31,17.9L174.9,266.4z M145.8,248.3l29.1,16.8l29.1-16.8
		l-29.1-16.8L145.8,248.3z"/>
	<path class="st1" d="M205.1,283.8l-0.3-0.2l-31-17.9l31.3-18.1l31.3,18.1L205.1,283.8z M176,265.7l29.1,16.8l29.1-16.8L205.1,249
		L176,265.7z"/>
	<path class="st1" d="M235.2,301.2L235,301l-31-17.9l31.3-18.1l0.3,0.2l31,17.9L235.2,301.2z M206.2,283.2l29.1,16.8l29.1-16.8
		l-29.1-16.8L206.2,283.2z"/>
	<path class="st1" d="M54.2,231.5l-0.3-0.2l-31-17.9l31.3-18.1l0.3,0.2l31,17.9L54.2,231.5z M25.1,213.5l29.1,16.8l29.1-16.8
		l-29.1-16.8L25.1,213.5z"/>
	<path class="st1" d="M84.4,249l-0.3-0.2l-31-17.9l31.3-18.1l31.3,18.1L84.4,249z M55.3,230.9l29.1,16.8l29.1-16.8l-29.1-16.8
		L55.3,230.9z"/>
	<path class="st1" d="M114.5,266.4l-31.3-18.1l31.3-18.1l31.3,18.1L114.5,266.4z M85.5,248.3l29.1,16.8l29.1-16.8l-29.1-16.8
		L85.5,248.3z"/>
	<path class="st1" d="M144.7,283.8l-0.3-0.2l-31-17.9l31.3-18.1l0.3,0.2l31,17.9L144.7,283.8z M115.6,265.7l29.1,16.8l29.1-16.8
		L144.7,249L115.6,265.7z"/>
	<path class="st1" d="M174.9,301.2l-0.3-0.2l-31-17.9l31.3-18.1l0.3,0.2l31,17.9L174.9,301.2z M145.8,283.2l29.1,16.8l29.1-16.8
		l-29.1-16.8L145.8,283.2z"/>
	<path class="st1" d="M54.2,266.4l-0.3-0.2l-31-17.9l31.3-18.1l0.3,0.2l31,17.9L54.2,266.4z M25.1,248.3l29.1,16.8l29.1-16.8
		l-29.1-16.8L25.1,248.3z"/>
	<path class="st1" d="M84.4,283.8l-0.3-0.2l-31-17.9l31.3-18.1l31.3,18.1L84.4,283.8z M55.3,265.7l29.1,16.8l29.1-16.8L84.4,249
		L55.3,265.7z"/>
	<path class="st1" d="M114.5,301.2l-31.3-18l31.3-18.1l0.3,0.2l31,17.9L114.5,301.2z M85.5,283.2l29.1,16.8l29.1-16.8l-29.1-16.8
		L85.5,283.2z"/>
	<path class="st1" d="M54.2,301.2l-0.3-0.2l-31-17.8l31.3-18.1l0.3,0.2l31,17.9L54.2,301.2z M25.1,283.2L54.2,300l29.1-16.8
		l-29.1-16.8L25.1,283.2z"/>
</g>
<path class="st2" d="M361.2,174.1l-84.1-48.7c-4.6-2.6-12.5-2.3-17.8,0.7L82.9,227.7c-5.3,3-5.9,7.6-1.3,10.3l84.1,48.7
	c4.6,2.6,12.6,2.3,17.8-0.7l176.4-101.6C365.2,181.4,365.8,176.7,361.2,174.1z"/>
<path class="st1" d="M173.4,278c-3,0.1-5.9-0.6-8.5-2l-84.1-48.7c-2.5-1.4-3.8-3.5-3.8-5.8c0-2.6,1.9-5.2,5.1-7.1L258.6,113
	c5.8-3.3,14.3-3.6,19.3-0.7l84.1,48.7c2.5,1.4,3.8,3.5,3.8,5.8c0,2.6-1.9,5.2-5.1,7.1L184.2,275.3
	C180.9,277.1,177.2,278.1,173.4,278z M269.4,113.2c-3.3,0-6.5,0.8-9.4,2.3L83.6,217.1c-2.3,1.3-3.6,3-3.6,4.6s1.3,2.6,2.3,3.2
	l84.1,48.7c4.1,2.4,11.6,2,16.4-0.7l176.5-101.6c2.3-1.3,3.6-3,3.6-4.6s-1.3-2.6-2.4-3.2l-84.1-48.7
	C274.2,113.7,271.8,113.1,269.4,113.2z"/>
<path class="st3" d="M163.2,256.7l-87.5-50.7c-2.9-1.7-4.2-3.9-4.1-6.2l0,0v-12.7l4.9,5.7c0.3-0.2,0.6-0.4,1-0.6l179-103
	c7.1-4.1,17.9-4.5,24-1l86.3,50c1.8-1.9,5.4-5.9,5.4-5.9v12.4l0,0c0.1,2.8-1.9,5.8-5.9,8.1l-179,103
	C180.1,259.9,169.4,260.3,163.2,256.7z"/>
<path class="st4" d="M115.9,225.7l5,2.9c0.7,0.4,1.2,0,1.2-0.9l0,0c0-0.9-0.5-1.8-1.2-2.3l-5-2.9c-0.7-0.4-1.2,0-1.2,0.9l0,0
	C114.7,224.3,115.1,225.1,115.9,225.7z"/>
<path class="st5" d="M256.4,89.2c7.1-4.1,17.9-4.5,24-1l86.3,50c1.8-1.9,5.4-5.9,5.4-5.9v12.4l0,0c0.1,2.8-1.9,5.8-5.9,8.1l-179,103
	c-4,2.2-8.4,3.3-12.9,3.4l0.2-122.7L256.4,89.2z"/>
<path class="st2" d="M368,126.2l-87.5-50.7c-6.1-3.6-16.9-3.1-24,1l-179,103c-7.1,4.1-7.9,10.3-1.7,13.9l87.5,50.7
	c6.1,3.6,16.9,3.1,24-1l179-103C373.4,135.9,374.1,129.7,368,126.2z"/>
<path class="st1" d="M163.2,245.3l-87.5-50.7c-3.2-1.8-4.5-4.4-4-7c0.2,2.1,1.5,4.1,4.1,5.6l87.5,50.7c6.1,3.6,16.9,3.1,24-1
	l179-103c3.5-2,5.4-4.4,5.8-6.9c0.2,2.8-1.8,5.9-5.9,8.2l-179,103C180.1,248.4,169.3,248.9,163.2,245.3z"/>
<path class="st6" d="M361.2,128.2l-84.1-48.7c-4.6-2.6-12.5-2.3-17.8,0.7L82.9,181.7c-5.3,3-5.9,7.6-1.3,10.3l84.1,48.7
	c4.6,2.6,12.6,2.3,17.8-0.7l176.4-101.5C365.2,135.4,365.8,130.8,361.2,128.2z"/>
<polygon class="st7" points="186.8,215.4 127.5,181.2 131.3,179 190.6,213.2 "/>
<polygon class="st8" points="145.5,205.4 115.5,188.1 119.3,185.9 149.3,203.2 "/>
<polygon class="st9" points="160.1,213.8 150.4,208.2 154.2,206 163.9,211.7 "/>
<polygon class="st1" points="174.8,222.3 165.1,216.7 168.9,214.5 178.6,220.1 "/>
<polygon class="st1" points="145.9,198.7 121.5,184.6 125.3,182.4 149.7,196.5 "/>
<polygon class="st8" points="175.6,215.9 151.3,201.8 155,199.6 179.4,213.7 "/>
<path class="st1" d="M164.2,189.6c-1.4,0.7-3,0.7-4.4,0c-0.7-0.2-1.1-1-0.8-1.7c0.1-0.4,0.4-0.7,0.8-0.8c1.4-0.7,3-0.7,4.4,0
	c0.7,0.2,1.1,1,0.8,1.7C164.9,189.2,164.6,189.5,164.2,189.6z"/>
<path class="st8" d="M170.8,193.4c-1.4,0.7-3,0.7-4.4,0c-0.7-0.2-1.1-1-0.8-1.7c0.1-0.4,0.4-0.7,0.8-0.8c1.4-0.7,3-0.7,4.4,0
	c0.7,0.2,1.1,1,0.8,1.7C171.5,193,171.2,193.3,170.8,193.4z"/>
<path class="st9" d="M177.4,197.2c-1.4,0.7-3,0.7-4.4,0c-0.7-0.2-1.1-1-0.8-1.7c0.1-0.4,0.4-0.7,0.8-0.8c1.4-0.7,3-0.7,4.4,0
	c0.7,0.2,1.1,1,0.8,1.7C178.1,196.7,177.8,197.1,177.4,197.2z"/>
<path class="st1" d="M184,201c-1.4,0.7-3,0.7-4.4,0c-0.7-0.2-1.1-1-0.8-1.7c0.1-0.4,0.4-0.7,0.8-0.8c1.4-0.7,3-0.7,4.4,0
	c0.7,0.2,1.1,1,0.8,1.7C184.7,200.6,184.4,200.9,184,201z"/>
<polygon class="st9" points="316.7,128.5 306.7,122.8 310.6,120.5 320.6,126.3 "/>
<polygon class="st1" points="330.6,136.6 320.6,130.8 324.5,128.5 334.5,134.3 "/>
<polygon class="st1" points="272.1,102.5 262.1,96.8 266,94.5 276,100.3 "/>
<polygon class="st1" points="314.5,134.3 300.5,126.3 304.4,124.1 318.3,132.1 "/>
<polygon class="st8" points="324.5,140.1 318.4,136.6 322.2,134.3 328.3,137.9 "/>
<path class="st1" d="M343.3,216.7c-0.2,0-0.4-0.1-0.6-0.1c-0.7-0.3-0.9-1.2-0.6-1.8c1.3-2.5,3.2-4.6,5.5-6.1
	c1.2-0.7,2.5-1.1,3.9-1.1c1.8,0.1,3.9-1.2,5.8-3.5c1-1.2,2.2-2.2,3.5-3.1c1.2-0.7,2.5-1.1,3.9-1.1c1.8,0,3.9-1.2,5.8-3.5
	c1-1.2,2.2-2.3,3.5-3.1c1.2-0.7,2.5-1.1,3.9-1.1c1.8,0,3.9-1.2,5.8-3.5c1-1.2,2.2-2.3,3.5-3.1c1.6-1.1,3.7-1.4,5.6-0.7
	c0.7,0.3,1.1,1,0.8,1.7c-0.3,0.7-1,1.1-1.7,0.8c-0.1,0-0.1,0-0.2-0.1c-1.1-0.3-2.2-0.1-3.1,0.6c-1.1,0.6-2,1.5-2.8,2.4
	c-2.5,3-5.4,4.6-8.1,4.5c-0.9,0-1.7,0.3-2.4,0.7c-1.1,0.6-2,1.5-2.8,2.4c-2.5,3-5.4,4.6-8,4.5c-0.9,0-1.7,0.3-2.4,0.7
	c-1.1,0.6-2,1.5-2.8,2.4c-2.5,3-5.4,4.6-8.1,4.5c-0.9,0-1.7,0.3-2.4,0.7c-1.9,1.2-3.5,3-4.5,5C344.3,216.4,343.8,216.7,343.3,216.7z
	"/>
<path class="st1" d="M263.6,268.9c-0.1,1.8-1.1,3.5-2.6,4.5c-1.5,0.8-2.6,0.2-2.6-1.5c0.1-1.8,1.1-3.5,2.6-4.5
	C262.4,266.5,263.6,267.2,263.6,268.9z"/>
<path class="st1" d="M272.1,264c-0.1,1.8-1.1,3.5-2.6,4.5c-1.4,0.8-2.6,0.2-2.6-1.5c0.1-1.8,1.1-3.5,2.6-4.5
	C270.9,261.6,272.1,262.3,272.1,264z"/>
<path class="st1" d="M280.5,259.1c-0.1,1.8-1.1,3.5-2.6,4.5c-1.4,0.8-2.6,0.2-2.6-1.5c0.1-1.8,1.1-3.5,2.6-4.5
	C279.4,256.8,280.5,257.4,280.5,259.1z"/>
<path class="st1" d="M289,254.2c-0.1,1.8-1.1,3.5-2.6,4.5c-1.4,0.8-2.6,0.2-2.6-1.5c0.1-1.8,1.1-3.5,2.6-4.5
	C287.8,251.9,289,252.5,289,254.2z"/>
<path class="st1" d="M243,47.6c-0.1,1.8-1.1,3.5-2.6,4.5c-1.4,0.8-2.6,0.2-2.6-1.5c0.1-1.8,1.1-3.5,2.6-4.5
	C241.8,45.3,243,46,243,47.6z"/>
<path class="st1" d="M250.2,43.5c-0.1,1.8-1.1,3.5-2.6,4.5c-1.4,0.8-2.6,0.2-2.6-1.5c0.1-1.8,1.1-3.5,2.6-4.5
	C249,41.2,250.2,41.8,250.2,43.5z"/>
<path class="st1" d="M243,39.3c-0.1,1.8-1.1,3.5-2.6,4.5c-1.4,0.8-2.6,0.2-2.6-1.5c0.1-1.8,1.1-3.5,2.6-4.5
	C241.8,37,243,37.7,243,39.3z"/>
<path class="st1" d="M250.2,35.2c-0.1,1.8-1.1,3.5-2.6,4.5c-1.4,0.8-2.6,0.2-2.6-1.5c0.1-1.8,1.1-3.5,2.6-4.5
	C249,32.8,250.2,33.5,250.2,35.2z"/>
<polygon class="st1" points="84.2,143.7 79,146.7 79,140.7 84.2,137.6 "/>
<polygon class="st1" points="92.7,138.8 87.4,141.8 87.4,135.8 92.7,132.8 "/>
<polygon class="st1" points="101.1,133.9 95.9,136.9 95.9,130.9 101.1,127.9 "/>
<polygon class="st1" points="109.6,129 104.4,132 104.4,126 109.6,123 "/>
<polygon class="st1" points="208.3,299.6 203.1,302.6 203.1,296.6 208.3,293.5 "/>
<polygon class="st1" points="215.6,295.3 210.4,298.4 210.4,292.3 215.6,289.3 "/>
<polygon class="st1" points="208.4,307.4 203.1,310.4 203.1,304.4 208.4,301.4 "/>
<polygon class="st1" points="215.6,303.2 210.4,306.3 210.4,300.2 215.6,297.2 "/>
<path class="st1" d="M330,26c-1,0.6-1.8,1.3-2.6,2.2c-0.1-5-3.7-7-8.2-4.5c-1.5,0.9-2.8,2.1-3.9,3.5c-2-3.5-6.1-4.3-10.8-1.5
	c-6.7,3.9-12.1,13.2-12.1,21c0,0.6,0,1.2,0.1,1.8c-1.2-0.2-2.4,0-3.4,0.7c-3.4,2.2-5.5,5.9-5.8,10c0,3.7,2.6,5.2,5.8,3.3L330,38.9
	c3.3-2.2,5.3-5.8,5.5-9.7C335.5,25.7,333.1,24.2,330,26z"/>
<path class="st10" d="M90,270.5c-1,0.6-1.9,1.4-2.7,2.3c-0.1-5.3-4-7.5-8.7-4.7c-1.6,1-3,2.2-4.2,3.6c-2.1-3.7-6.4-4.5-11.5-1.6
	c-7.1,4.1-12.8,14-12.8,22.2c0,0.6,0,1.3,0.1,1.9c-1.2-0.2-2.5,0-3.6,0.7c-3.6,2.4-5.9,6.3-6.1,10.6c0,3.9,2.7,5.5,6.1,3.5l43.3-25
	c3.5-2.3,5.7-6.1,5.9-10.2C95.9,270.2,93.3,268.7,90,270.5z"/>
<path class="st2" d="M155,126.6l60.1-34.7c6.5-3.8,5.7-10.3-1.8-14.7l0,0c-7.5-4.3-18.9-4.8-25.4-1.1l-60.1,34.7
	c-6.5,3.8-5.7,10.3,1.8,14.6l0,0C137.2,129.9,148.5,130.4,155,126.6z"/>
<path class="st1" d="M144,120c-5.3,0-10.4-1.3-15.1-3.8c-4.4-2.6-7-6-7-9.6c0-3,1.8-5.7,5.1-7.6l60.1-34.7c7-4,18.8-3.6,26.9,1
	c4.4,2.6,7,6,7,9.6c0,3-1.8,5.7-5.1,7.6l-60.1,34.8C152.1,119.2,148.1,120.1,144,120z M199,64.5c-3.6-0.1-7.1,0.7-10.3,2.4
	l-60.1,34.7c-2.4,1.4-3.7,3.1-3.7,5.1c0,2.4,2,5,5.5,7c7.1,4.1,17.8,4.6,23.9,1L214.4,80c2.4-1.4,3.7-3.1,3.7-5.1c0-2.4-2-5-5.5-7
	C208.4,65.7,203.7,64.5,199,64.5L199,64.5z"/>
<path class="st5" d="M188.1,73.3v-4.4l5.2-26l-5.1-3.2l-10.2,5.6l-0.1,33.5c0,2.3,0.8,3.8,2.1,4.3l0,0l4.5,2.8l0.6-2.2l0.8-3.9
	C187.2,77.9,188,75.6,188.1,73.3z"/>
<path class="st3" d="M188,85.9L188,85.9c-2.8,1.6-5.1-0.2-5.1-3.9l0.1-33.5l10.2-5.6l-0.1,33.5C193.1,80.1,190.9,84.4,188,85.9z"/>
<path class="st9" d="M215.6,24.9c0-8.5-6-18.8-13.3-23.1c-3.8-2.2-7.2-2.3-9.7-0.8l0,0l-40.4,23.3L173,55.7l38.6-22.1l0.1-0.1h0.1
	l0,0C214.1,32,215.6,29.1,215.6,24.9z"/>
<path class="st6" d="M196.5,36.2c0-8.7-6.1-19.4-13.7-23.7c-3.4-2-6.6-2.3-9-1.3l0,0h-0.1h-0.1l-0.3,0.1
	c-14.3,7.1-30.1,10.4-46.1,9.8l-4.5-0.2l36.8,63l2-3.8c7.3-14,17.9-26,30.9-35C195,43.7,196.5,40.6,196.5,36.2z"/>
<path class="st3" d="M163.9,69.8c0-16.8-11.8-37.1-26.3-45.5c-7.2-4.2-13.8-4.6-18.5-1.9l0,0l0,0l0,0l-4.3,2.5l1.5-0.3
	c-3.1,3.2-4.9,8.2-4.9,14.8c0,16.8,11.8,37.2,26.3,45.5c5.7,3.3,11,4.2,15.3,3.2l-0.7,1l4-2.3h0.1l0.1-0.1l0,0
	C161,83.9,163.9,78,163.9,69.8z"/>
<path class="st1" d="M160.8,71.6c0-16.8-11.8-37.2-26.3-45.5c-7.1-4.1-13.6-4.6-18.3-2l-0.7,0.4c-0.2,0.1-0.4,0.3-0.7,0.5l1.3-0.3
	c-3.1,3.2-4.9,8.2-4.9,14.8c0,16.8,11.8,37.2,26.3,45.5c5.7,3.3,11,4.2,15.3,3.2l-0.6,0.9C157.5,86.5,160.8,80.4,160.8,71.6z"/>
<ellipse transform="matrix(0.866 -0.5 0.5 0.866 -10.5383 74.445)" class="st5" cx="133.6" cy="56.9" rx="21.5" ry="37.2"/>
<ellipse transform="matrix(0.866 -0.5 0.5 0.866 -10.5383 74.445)" class="st9" cx="133.6" cy="56.9" rx="18.8" ry="32.6"/>
<path class="st1" d="M134.7,83.1c-12.7-7.3-23.1-25.2-23.1-39.9c0-7.7,2.8-13,7.4-15.3c-5.2,1.9-8.5,7.4-8.5,15.7
	c0,14.7,10.3,32.6,23.1,39.9c6.1,3.5,11.6,4,15.7,2C145.4,86.9,140.3,86.3,134.7,83.1z"/>
<g>
	<defs>
		<ellipse id="SVGID_1_" transform="matrix(0.866 -0.5 0.5 0.866 -10.5382 74.445)" cx="133.6" cy="56.9" rx="18.8" ry="32.6"/>
	</defs>
	<clipPath id="SVGID_2_">
		<use xlink:href="#SVGID_1_"  style="overflow:visible;"/>
	</clipPath>
	<g class="st11">
		<polygon class="st2" points="130.2,51.4 163.7,25.5 175.8,46.6 136.5,62.7 		"/>
		<path class="st3" d="M138.3,59.5c0,2.9-2.1,4.1-4.6,2.7c-2.7-1.8-4.4-4.8-4.6-8c0-2.9,2.1-4.1,4.6-2.7
			C136.4,53.3,138.1,56.3,138.3,59.5z"/>
	</g>
</g>
<path class="st1" d="M180.5,73.5l-0.2-0.1c-0.8-0.5-1.2-1.4-1.2-2.3v-6.4c0-0.9,0.5-1.3,1.2-0.9l0.2,0.1c0.7,0.5,1.2,1.4,1.2,2.3
	v6.5C181.7,73.5,181.2,73.9,180.5,73.5z"/>
<ellipse class="st12" cx="230.2" cy="163" rx="34.4" ry="19.8"/>
<path class="st9" d="M272.9,136v-12h-2.3c-2.5-4-6.1-7.3-10.3-9.6c-16.7-9.6-43.7-9.6-60.4,0c-4.2,2.2-7.7,5.5-10.3,9.6h-2.3V136
	l0,0c0,6.3,4.1,12.7,12.5,17.5c16.7,9.6,43.7,9.6,60.4,0C268.7,148.7,272.9,142.4,272.9,136z"/>
<path class="st13" d="M259.6,114.5c-8.9-4.8-20.5-7.2-32.1-7.2v53.3c11.6,0,23.2-2.4,32.1-7.2c8.9-4.8,13.3-11.1,13.3-17.4v-12h-2.4
	C267.8,120,264,116.7,259.6,114.5z"/>
<ellipse class="st9" cx="230.2" cy="124.1" rx="42.7" ry="24.7"/>
<path class="st1" d="M260.4,141.5c-16.7,9.6-43.7,9.6-60.4,0c-8-4.6-12.1-10.6-12.4-16.7c-0.4,6.6,3.8,13.2,12.4,18.2
	c16.7,9.6,43.7,9.6,60.4,0c8.7-5,12.8-11.6,12.4-18.2C272.5,130.9,268.4,136.9,260.4,141.5z"/>
<path class="st1" d="M213.1,125.1l16.7-9.7c1.9-1.1,5.1-0.6,5.9,0.9l7,13.7c0.8,1.6-1.7,3-4.4,2.5l-23.8-4.1
	C212.1,128.1,211.3,126.2,213.1,125.1z"/>
<polygon class="st14" points="223.5,200.7 155.3,161.3 157.1,160.3 225.3,199.7 "/>
<polygon class="st8" points="177.3,175.2 154.3,161.9 158.1,159.7 181.1,173 "/>
<polygon class="st1" points="176.4,175.9 175.4,175.4 181.4,171.9 182.3,172.5 "/>
<path class="st1" d="M1.4,271.4c-0.2,0-0.4-0.1-0.6-0.2c-0.7-0.4-0.9-1.2-0.6-1.8c0,0,0,0,0,0c1.3-2.5,3.2-4.7,5.6-6.1
	c1.2-0.7,2.6-1.1,3.9-1c1.8,0.1,4-1.3,5.9-3.6c1-1.2,2.2-2.3,3.6-3.1c1.2-0.7,2.5-1.1,3.9-1.1c1.8,0.1,4-1.2,5.9-3.6
	c1-1.2,2.2-2.3,3.6-3.1c1.2-0.7,2.5-1.1,3.9-1.1c1.8,0.1,4-1.2,5.9-3.6c1-1.2,2.2-2.3,3.6-3.1c1.7-1.1,3.8-1.4,5.6-0.7
	c0.7,0.3,1,1.1,0.7,1.8c-0.3,0.7-1.1,1-1.8,0.7c-1.1-0.3-2.3-0.1-3.2,0.6c-1.1,0.7-2,1.5-2.8,2.5c-2.5,3-5.4,4.7-8.1,4.5
	c-0.9,0-1.7,0.3-2.4,0.7c-1.1,0.6-2,1.5-2.8,2.5c-2.5,3-5.4,4.7-8.1,4.5c-0.9,0-1.7,0.3-2.4,0.7c-1.1,0.6-2,1.5-2.8,2.5
	c-2.5,3-5.4,4.7-8.1,4.5c-0.9,0-1.7,0.3-2.4,0.7c-1.9,1.2-3.5,3-4.5,5C2.4,271.1,1.9,271.4,1.4,271.4z"/>
<path class="st1" d="M347.1,89.2c-1,0-2-0.2-2.9-0.8c-2-1.2-3.2-3.6-3.2-6.7c0-6,4.1-13.1,9.3-16.1c2.7-1.6,5.4-1.8,7.4-0.6
	c2,1.2,3.2,3.6,3.2,6.7c0,6-4.1,13.1-9.3,16.1C350.3,88.7,348.7,89.1,347.1,89.2z M354.9,66.8c-1.1,0-2.3,0.4-3.2,1
	c-4.4,2.6-8,8.8-8,13.9c0,2.2,0.7,3.8,1.9,4.5s3,0.5,4.9-0.6c4.4-2.6,8-8.8,8-13.9c0-2.2-0.7-3.8-1.9-4.5
	C356,66.9,355.4,66.8,354.9,66.8L354.9,66.8z"/>
</svg>
