<?xml version="1.0" encoding="utf-8"?>
<!-- Generator: Adobe Illustrator 23.0.1, SVG Export Plug-In . SVG Version: 6.00 Build 0)  -->
<svg version="1.1" id="_ÎÓÈ_1" xmlns="http://www.w3.org/2000/svg" xmlns:xlink="http://www.w3.org/1999/xlink" x="0px" y="0px"
	 viewBox="0 0 323.1 378.7" style="enable-background:new 0 0 323.1 378.7;" xml:space="preserve">
<style type="text/css">
	.st0{fill:#E6E7E8;}
	.st1{fill:#47565F;}
	.st2{fill:#3C4850;}
	.st3{fill:#242993;}
	.st4{fill:#262E33;}
	.st5{opacity:0.51;}
	.st6{fill:#313B42;}
	.st7{opacity:0.6;fill:#47565F;enable-background:new    ;}
	.st8{opacity:0.21;fill:#FFD957;enable-background:new    ;}
	.st9{fill:#FFD957;}
	.st10{opacity:0.96;fill:#3C4850;enable-background:new    ;}
	.st11{opacity:0.39;fill:#FFD957;enable-background:new    ;}
	.st12{opacity:0.5;fill:#3C4850;enable-background:new    ;}
	.st13{fill:url(#SVGID_1_);}
	.st14{fill:url(#SVGID_2_);}
	.st15{fill:#4553C7;}
	.st16{fill:#42FFFF;}
	.st17{opacity:0.4;fill:#FFD957;enable-background:new    ;}
	.st18{opacity:0.32;}
</style>
<path class="st0" d="M203.3,355c-1.5,0.1-3.1-0.3-4.5-1L42.2,263.5c-1.1-0.5-1.8-1.6-1.9-2.8c0-1.3,1-2.6,2.6-3.6l13.6-7.9
	c3-1.7,7.6-1.9,10.2-0.4l156.7,90.5c1.1,0.5,1.8,1.6,1.9,2.9c0,1.3-1,2.6-2.6,3.6l-13.6,7.9C207.3,354.6,205.3,355,203.3,355z
	 M62.3,248.7c-1.8,0-3.7,0.4-5.3,1.3l-13.6,7.9c-1.4,0.8-2.1,1.8-2.1,2.8c0.1,0.9,0.6,1.6,1.4,2l156.7,90.5c2.4,1.4,6.5,1.2,9.3-0.4
	l13.7-7.9c1.4-0.8,2.1-1.8,2.1-2.8c-0.1-0.9-0.6-1.6-1.4-2L66.3,249.6C65,249,63.7,248.7,62.3,248.7z"/>
<path class="st0" d="M293,305.1c-1.2,0-2.3-0.3-3.4-0.9l-25.9-15c-0.8-0.5-1.1-1.5-0.7-2.3c0.2-0.3,0.4-0.5,0.7-0.7l25.9-15
	c2.1-1.2,4.6-1.2,6.7,0l25.9,15c0.8,0.5,1.1,1.5,0.7,2.3c-0.2,0.3-0.4,0.5-0.7,0.7l-25.9,15C295.3,304.8,294.2,305.1,293,305.1z
	 M293,271.3c-1,0-2,0.3-2.9,0.8l-25.9,15c-0.2,0.1-0.4,0.4-0.4,0.7c0,0.3,0.1,0.5,0.4,0.7l25.9,15c1.8,1,4,1,5.8,0l25.9-15
	c0.2-0.1,0.4-0.4,0.4-0.7c0-0.3-0.1-0.5-0.4-0.7l-25.9-15C295,271.6,294,271.3,293,271.3z"/>
<path class="st1" d="M73,7.7l13.1-7.6l0,0c0.6-0.3,1.4-0.2,1.9,0.2l113.1,65.3c1.9,1.4,3.1,3.6,3.1,5.9v257.3c0.1,1-0.3,1.9-1.1,2.5
	l0,0l-13.1,7.5l-0.3-14.3L88,265.8c-1.9-1.4-3-3.5-3.1-5.9V14.5c-0.3,0.8-0.5,1.5-0.5,1.5S73,7.7,73,7.7z"/>
<path class="st2" d="M204.1,70.6L170,90.3l-5.2-3L201.7,66C203,67.2,203.9,68.8,204.1,70.6z"/>
<path class="st2" d="M75,273.3l113.1,65.3c1.7,1,3.1-0.1,3.1-2.3V79.1c0-2.3-1.2-4.5-3.1-5.9L75,7.9c-1.7-1-3.1,0.1-3.1,2.3v257.3
	C72,269.8,73.1,272,75,273.3z"/>
<polygon class="st3" points="71.9,253.4 191.2,322.2 191.2,93.1 71.9,24.3 "/>
<polygon class="st4" points="71.9,253.4 191.2,322.2 191.2,93.1 71.9,24.3 "/>
<g class="st5">
	<polygon class="st6" points="71.9,245.3 191.2,314.2 191.2,100.5 71.9,31.6 	"/>
</g>
<path class="st4" d="M122.3,46.7l21.6,12.5c0.6,0.4,1.2,0.5,1.4-0.1c0.1-0.2,0.1-0.5,0.1-0.7l0,0c0-1.2-0.6-2.2-1.5-2.9L122,42.9
	c-0.1,0-0.1-0.1-0.2-0.1c-0.7,0.2-0.8,0.3-0.8,1.4l0.1,0.3C121,45.4,121.5,46.3,122.3,46.7z"/>
<path class="st6" d="M121.8,42.8c-0.1,0.2-0.1,0.5-0.1,0.7c0,1.2,0.6,2.3,1.6,2.9L145.1,59c0.1,0,0.1,0.1,0.2,0.1
	c-0.1,0.5-0.6,0.7-1.1,0.6c-0.1,0-0.2-0.1-0.3-0.1L122.1,47c-0.9-0.7-1.5-1.8-1.5-2.9C120.5,43,121.1,42.5,121.8,42.8z"/>
<path class="st4" d="M198.1,100.4l0.2-0.1c0.3-0.2,0.7-0.2,1.1-0.1l0,0l0.9,0.5h-0.5c0.1,0.2,0.1,0.5,0.1,0.8v14.9
	c0,1.3-0.6,2.4-1.7,3.1l-0.2,0.1c-0.1,0.1-0.2,0.1-0.3,0.1l0.2,0.5l-1-0.6l0,0c-0.4-0.3-0.7-0.8-0.6-1.3v-14.9
	C196.5,102.3,197.1,101.1,198.1,100.4z"/>
<path class="st6" d="M199.1,120.2l0.3-0.1c1-0.7,1.6-1.9,1.6-3.2v-14.9c0-1.2-0.7-1.8-1.6-1.3l-0.3,0.1c-1,0.7-1.6,1.9-1.6,3.2V119
	C197.4,120.2,198.2,120.8,199.1,120.2z"/>
<path class="st4" d="M198.1,123.1l0.2-0.1c0.3-0.2,0.7-0.3,1.1-0.1l0,0l0.9,0.5h-0.5c0.1,0.3,0.1,0.5,0.1,0.8v14.9
	c0,1.3-0.6,2.4-1.7,3.2l-0.2,0.1c-0.1,0.1-0.2,0.1-0.3,0.1l0.2,0.5l-1-0.6l0,0c-0.4-0.3-0.7-0.8-0.6-1.3v-14.9
	C196.5,125,197.1,123.9,198.1,123.1z"/>
<path class="st6" d="M199.1,143l0.3-0.1c1-0.7,1.6-1.9,1.6-3.2v-14.9c0-1.2-0.7-1.8-1.6-1.3l-0.3,0.1c-1,0.7-1.6,1.9-1.6,3.1v14.9
	C197.4,142.9,198.2,143.5,199.1,143z"/>
<path class="st7" d="M71.9,267.5v-145c4.4-12.2,13.2-23.9,23.3-29.7l0,0l79.5,45.9c-14.5,8.4-26.3,28.8-26.3,45.6v127
	c0,1.5-0.1,2.9-0.3,4.4L75,273.3C73.1,272,72,269.8,71.9,267.5z"/>
<path class="st4" d="M72.8,76.7l8.1-4.7l0,0c0.1-0.1,0.3-0.1,0.4,0l101.4,58.5c0.4,0.3,0.6,0.7,0.6,1.1v19.1c0,0.2,0,0.3-0.2,0.4
	l0,0l-8.2,4.7l-0.1-9.3l-93.6-54c-0.4-0.3-0.6-0.7-0.6-1.2v-6.6L72.8,76.7z"/>
<path class="st6" d="M73.1,97.5L174.5,156c0.3,0.2,0.6,0,0.6-0.4v-19.1c0-0.5-0.2-0.9-0.6-1.1L73.1,76.7c-0.3-0.2-0.6,0-0.6,0.4
	v19.2C72.5,96.8,72.8,97.2,73.1,97.5z"/>
<path class="st8" d="M87.1,93.6l79,46.4c-2.5,2.2-4.8,4.6-6.9,7.1l-79.6-45.9C81.9,98.5,84.4,95.9,87.1,93.6z"/>
<path class="st9" d="M76,91.7l95.6,55.2c0.2,0.1,0.4,0,0.4-0.3v-4.8c0-0.3-0.2-0.6-0.4-0.8L76,85.8c-0.2-0.1-0.4,0-0.4,0.3v4.8
	C75.6,91.2,75.8,91.5,76,91.7z"/>
<path class="st9" d="M76,85.8l1.9,1.1v2.6c0,0.3,0.2,0.6,0.4,0.8l93.7,54.1v2.2c0,0.3-0.2,0.4-0.4,0.3L76,91.7
	c-0.3-0.2-0.4-0.5-0.4-0.8v-4.8C75.6,85.8,75.8,85.7,76,85.8z"/>
<path class="st10" d="M115.4,348l-79.5-45.9l0,0c12.4-7.1,22.4-24.5,22.4-38.8v-127c0-16.7,11.8-37.1,26.3-45.6l0,0l79.5,46l0,0
	c-14.5,8.4-26.3,28.8-26.3,45.6v127C137.8,323.5,127.8,340.9,115.4,348L115.4,348z"/>
<path class="st11" d="M84.6,90.7l79.5,46c-0.6,0.4-1.3,0.8-1.9,1.2l0,0l-79.5-46C83.3,91.5,84,91.1,84.6,90.7z"/>
<polygon class="st9" points="174.2,187 177.3,188.8 177.3,186.7 174.2,184.9 "/>
<polygon class="st9" points="174.2,201.2 177.3,203 177.3,190.7 174.2,188.9 "/>
<polygon class="st9" points="174.2,208 177.3,209.8 177.3,204.9 174.2,203.1 "/>
<polygon class="st9" points="174.2,215.1 177.3,216.9 177.3,212 174.2,210.2 "/>
<polygon class="st9" points="169.5,191.1 172.6,192.9 172.6,188 169.5,186.2 "/>
<polygon class="st9" points="169.5,200.4 172.6,202.3 172.6,195.1 169.5,193.3 "/>
<polygon class="st9" points="169.5,209 172.6,210.8 172.6,204.7 169.5,202.9 "/>
<polygon class="st9" points="174.2,222.1 177.3,223.9 177.3,219.1 174.2,217.2 "/>
<polygon class="st9" points="169.5,184.3 172.6,186.1 172.6,184 169.5,182.2 "/>
<polygon class="st9" points="171.8,227.6 177.3,230.8 177.3,228.7 171.8,225.6 "/>
<path class="st12" d="M263.7,278.7l-43.2-24.9c-0.7-0.4-0.6-1.2,0.2-1.7l42.8-24.7c0.9-0.5,2-0.5,2.9-0.1l43.2,24.9
	c0.7,0.4,0.6,1.2-0.2,1.7l-42.8,24.7C265.7,279.1,264.6,279.1,263.7,278.7z"/>
<path class="st1" d="M310,236.5v-8.3h-13.6l-30.1-17.4c-0.9-0.4-2-0.4-2.9,0.1l-30,17.3H220v8.4l0,0c0,0.3,0.2,0.6,0.5,0.7
	l43.2,24.9c0.9,0.4,2,0.4,2.9-0.1l42.8-24.7C309.7,237.2,310,236.9,310,236.5z"/>
<linearGradient id="SVGID_1_" gradientUnits="userSpaceOnUse" x1="222.1431" y1="-93.8447" x2="158.3431" y2="-144.9948" gradientTransform="matrix(0.87 0.5 1 -0.58 205.43 63.49)">
	<stop  offset="0" style="stop-color:#C0D6FF"/>
	<stop  offset="0.3" style="stop-color:#C5DBFF"/>
	<stop  offset="0.65" style="stop-color:#D3E9FF"/>
	<stop  offset="1" style="stop-color:#E9FFFF"/>
</linearGradient>
<path class="st13" d="M263.7,253.9l-43.2-24.9c-0.7-0.4-0.6-1.2,0.2-1.7l42.8-24.7c0.9-0.5,2-0.5,2.9-0.1l43.2,24.9
	c0.7,0.4,0.6,1.2-0.2,1.7l-42.8,24.7C265.7,254.2,264.6,254.3,263.7,253.9z"/>
<linearGradient id="SVGID_2_" gradientUnits="userSpaceOnUse" x1="222.1431" y1="-93.8447" x2="158.3431" y2="-144.9948" gradientTransform="matrix(0.87 0.5 1 -0.58 205.43 63.49)">
	<stop  offset="0" style="stop-color:#C0D6FF"/>
	<stop  offset="0.3" style="stop-color:#C5DBFF"/>
	<stop  offset="0.65" style="stop-color:#D3E9FF"/>
	<stop  offset="1" style="stop-color:#E9FFFF"/>
</linearGradient>
<path class="st14" d="M263.7,253.9l-43.2-24.9c-0.7-0.4-0.6-1.2,0.2-1.7l42.8-24.7c0.9-0.5,2-0.5,2.9-0.1l43.2,24.9
	c0.7,0.4,0.6,1.2-0.2,1.7l-42.8,24.7C265.7,254.2,264.6,254.3,263.7,253.9z"/>
<path class="st3" d="M263.8,251l-38.3-22.1c-0.7-0.4-0.6-1,0.2-1.5l37.9-21.9c0.8-0.4,1.7-0.5,2.6-0.1l38.3,22.1
	c0.6,0.4,0.6,1-0.2,1.5l-37.9,21.9C265.6,251.3,264.6,251.3,263.8,251z"/>
<path class="st15" d="M263.9,249.1l-35.2-20.3c-0.6-0.4-0.5-1,0.2-1.4l34.8-20.1c0.7-0.4,1.6-0.4,2.4-0.1l35.2,20.3
	c0.6,0.4,0.5,1-0.2,1.4L266.3,249C265.5,249.4,264.7,249.4,263.9,249.1z"/>
<polygon class="st16" points="264.2,226.8 260.1,224.5 262.3,223.2 266.5,225.5 "/>
<polygon class="st16" points="271.9,226.5 267.7,228.9 265.5,227.6 269.6,225.2 "/>
<polygon class="st16" points="263.3,227.4 261,228.7 258.8,227.4 261,226.1 "/>
<polygon class="st16" points="271,231.9 268.8,233.2 262.3,229.4 264.5,228.1 "/>
<path class="st17" d="M310,217l-18.4,0.1l-25.3-14.6c-0.9-0.4-2-0.4-2.9,0.1l-25.7,14.8l-17.8,0.1v10.8l0,0c0.1,0.3,0.2,0.5,0.5,0.6
	l43.2,24.9c0.9,0.4,2,0.4,2.9-0.1l42.8-24.7c0.3-0.2,0.6-0.4,0.7-0.8l0,0L310,217z"/>
<path class="st2" d="M310,218v-8.3h-13.6l-30.1-17.4c-0.9-0.4-2-0.4-2.9,0.1l-30,17.3H220v8.4l0,0c0,0.3,0.2,0.6,0.5,0.7l43.2,24.9
	c0.9,0.4,2,0.4,2.9-0.1l42.8-24.7C309.7,218.7,310,218.4,310,218z"/>
<path class="st6" d="M263.7,235.4l-43.2-24.9c-0.7-0.4-0.6-1.2,0.2-1.7l42.8-24.7c0.9-0.5,2-0.5,2.9-0.1l43.2,24.9
	c0.7,0.4,0.6,1.2-0.2,1.7l-42.8,24.7C265.7,235.8,264.6,235.8,263.7,235.4z"/>
<path class="st2" d="M263.8,232.5l-38.3-22.1c-0.7-0.4-0.6-1,0.2-1.5l37.9-21.9c0.8-0.4,1.7-0.5,2.6-0.1l38.3,22.1
	c0.6,0.4,0.6,1-0.2,1.5l-37.9,21.9C265.6,232.8,264.6,232.9,263.8,232.5z"/>
<path class="st1" d="M263.9,230.6l-35.2-20.3c-0.6-0.4-0.5-1,0.2-1.4l34.8-20.1c0.7-0.4,1.6-0.4,2.4-0.1l35.2,20.3
	c0.6,0.4,0.5,1-0.2,1.4l-34.8,20.1C265.5,230.9,264.7,231,263.9,230.6z"/>
<polygon class="st9" points="264.2,208.4 260.1,206 262.3,204.7 266.5,207.1 "/>
<polygon class="st9" points="271.9,208 267.7,210.4 265.5,209.1 269.6,206.8 "/>
<polygon class="st9" points="263.3,208.9 261,210.2 258.8,208.9 261,207.6 "/>
<polygon class="st9" points="271,213.4 268.8,214.7 262.3,211 264.5,209.7 "/>
<rect x="212.7" y="321.7" transform="matrix(0.8695 -0.4939 0.4939 0.8695 -127.7848 160.6568)" class="st0" width="54.9" height="0.9"/>
<g class="st18">
	<polygon class="st9" points="108.5,227.7 123.1,236 123.1,234.4 108.5,226.1 	"/>
	<polygon class="st9" points="101,223.4 106.3,226.4 106.3,224.8 101,221.8 	"/>
	<polygon class="st9" points="95.3,220.1 98.8,222.1 98.8,220.5 95.3,218.4 	"/>
	<polygon class="st9" points="115.1,235.2 123.1,239.7 123.1,238.1 115.1,233.6 	"/>
	<polygon class="st9" points="103.2,228.3 112.9,233.9 112.9,232.3 103.2,226.7 	"/>
	<polygon class="st9" points="97.4,225 101,227 101,225.4 97.4,223.4 	"/>
	<polygon class="st9" points="91.9,221.8 95.5,223.9 95.5,222.3 91.9,220.2 	"/>
	<polygon class="st9" points="117.3,240.1 123.1,243.4 123.1,241.8 117.3,238.5 	"/>
	<polygon class="st9" points="113.2,237.7 115.1,238.9 115.1,237.3 113.2,236.1 	"/>
	<polygon class="st9" points="107.4,234.4 110.9,236.5 110.9,234.8 107.4,232.8 	"/>
	<polygon class="st9" points="101.9,235 123.1,247.1 123.1,245.5 101.9,233.4 	"/>
	<polygon class="st9" points="94.4,230.7 99.7,233.7 99.7,232.1 94.4,229.1 	"/>
	<polygon class="st9" points="117.3,247.6 123.1,250.8 123.1,249.2 117.3,245.9 	"/>
	<polygon class="st9" points="103.9,239.8 115.1,246.3 115.1,244.6 103.9,238.2 	"/>
	<polygon class="st9" points="98.1,236.5 101.7,238.5 101.7,236.9 98.1,234.9 	"/>
	<polygon class="st9" points="111.3,247.8 123.1,254.6 123.1,252.9 111.3,246.2 	"/>
	<polygon class="st9" points="100.6,241.6 109.1,246.5 109.1,244.9 100.6,240 	"/>
	<polygon class="st9" points="92.7,237.1 98.4,240.4 98.4,238.7 92.7,235.4 	"/>
	<polygon class="st9" points="119.1,256 123.1,258.3 123.1,256.6 119.1,254.4 	"/>
	<polygon class="st9" points="111.7,251.7 116.9,254.7 116.9,253.1 111.7,250.1 	"/>
	<polygon class="st9" points="101,245.5 109.4,250.4 109.4,248.8 101,243.9 	"/>
	<polygon class="st9" points="111,255 123.1,262 123.1,260.3 111,253.3 	"/>
	<polygon class="st9" points="97.4,247.1 108.7,253.7 108.7,252.1 97.4,245.5 	"/>
	<polygon class="st9" points="91.6,243.8 95.1,245.9 95.1,244.2 91.6,242.2 	"/>
	<polygon class="st9" points="86,240.6 89.6,242.7 89.6,241.1 86,239 	"/>
	<polygon class="st9" points="115.8,261.5 123.1,265.6 123.1,264 115.8,259.8 	"/>
	<polygon class="st9" points="79,210.7 68.9,204.9 68.9,203.3 79,209.1 	"/>
	<polygon class="st9" points="76.8,213.2 68.9,208.6 68.9,207 76.8,211.5 	"/>
	<polygon class="st9" points="74.7,215.6 68.9,212.3 68.9,210.7 74.6,214 	"/>
	<polygon class="st9" points="77.3,220.8 68.9,216 68.9,214.4 77.3,219.2 	"/>
	<polygon class="st9" points="74.7,223 68.9,219.7 68.9,218.1 74.7,221.4 	"/>
	<polygon class="st9" points="76.2,227.6 68.9,223.4 68.9,221.8 76.2,226 	"/>
	<polygon class="st9" points="72.9,229.4 68.9,227.1 68.9,225.5 72.9,227.8 	"/>
	<polygon class="st9" points="76.6,235.2 68.9,230.8 68.9,229.2 76.6,233.6 	"/>
	<polygon class="st9" points="76.2,238.7 68.9,234.5 68.9,232.9 76.2,237.1 	"/>
	<polygon class="st9" points="110.5,258.4 113.6,260.2 113.6,258.6 110.5,256.8 	"/>
	<polygon class="st9" points="101.3,253.1 108.3,257.1 108.3,255.5 101.3,251.5 	"/>
	<polygon class="st9" points="108.5,185.1 123.1,193.5 123.1,191.8 108.5,183.5 	"/>
	<polygon class="st9" points="101,180.8 106.3,183.8 106.3,182.2 101,179.2 	"/>
	<polygon class="st9" points="95.3,177.5 98.8,179.5 98.8,177.9 95.3,175.9 	"/>
	<polygon class="st9" points="115.1,192.6 123.1,197.2 123.1,195.5 115.1,191 	"/>
	<polygon class="st9" points="103.2,185.7 112.9,191.3 112.9,189.7 103.2,184.1 	"/>
	<polygon class="st9" points="97.4,182.4 101,184.4 101,182.8 97.4,180.8 	"/>
	<polygon class="st9" points="91.9,179.2 95.5,181.3 95.5,179.7 91.9,177.6 	"/>
	<polygon class="st9" points="117.3,197.6 123.1,200.9 123.1,199.2 117.3,195.9 	"/>
	<polygon class="st9" points="113.2,195.1 115.1,196.3 115.1,194.7 113.2,193.5 	"/>
	<polygon class="st9" points="107.4,191.8 110.9,193.9 110.9,192.3 107.4,190.2 	"/>
	<polygon class="st9" points="101.9,192.4 123.1,204.6 123.1,202.9 101.9,190.8 	"/>
	<polygon class="st9" points="94.4,188.1 99.7,191.1 99.7,189.5 94.4,186.5 	"/>
	<polygon class="st9" points="117.3,205 123.1,208.3 123.1,206.6 117.3,203.3 	"/>
	<polygon class="st9" points="103.9,197.2 115.1,203.7 115.1,202.1 103.9,195.6 	"/>
	<polygon class="st9" points="98.1,193.9 101.7,195.9 101.7,194.3 98.1,192.3 	"/>
	<polygon class="st9" points="111.3,205.2 123.1,212 123.1,210.3 111.3,203.6 	"/>
	<polygon class="st9" points="100.6,199.1 109.1,203.9 109.1,202.3 100.6,197.4 	"/>
	<polygon class="st9" points="92.7,194.5 98.4,197.8 98.4,196.1 92.7,192.9 	"/>
	<polygon class="st9" points="119.1,213.4 123.1,215.7 123.1,214 119.1,211.8 	"/>
	<polygon class="st9" points="111.7,209.1 116.9,212.1 116.9,210.5 111.7,207.5 	"/>
	<polygon class="st9" points="101,203 109.4,207.8 109.4,206.2 101,201.3 	"/>
	<polygon class="st9" points="111,212.4 123.1,219.4 123.1,217.7 111,210.8 	"/>
	<polygon class="st9" points="97.4,204.6 108.7,211.1 108.7,209.5 97.4,202.9 	"/>
	<polygon class="st9" points="91.6,201.2 95.1,203.3 95.1,201.7 91.6,199.6 	"/>
	<polygon class="st9" points="86,198 89.6,200.1 89.6,198.5 86,196.4 	"/>
	<polygon class="st9" points="115.8,218.9 123.1,223.1 123.1,221.4 115.8,217.3 	"/>
	<polygon class="st9" points="79,168.1 68.9,162.3 68.9,160.7 79,166.5 	"/>
	<polygon class="st9" points="76.8,170.6 68.9,166 68.9,164.4 76.8,168.9 	"/>
	<polygon class="st9" points="74.7,173 68.9,169.7 68.9,168.1 74.6,171.4 	"/>
	<polygon class="st9" points="77.3,178.2 68.9,173.4 68.9,171.8 77.3,176.6 	"/>
	<polygon class="st9" points="74.7,180.4 68.9,177.1 68.9,175.5 74.7,178.8 	"/>
	<polygon class="st9" points="76.2,185 68.9,180.8 68.9,179.2 76.2,183.4 	"/>
	<polygon class="st9" points="72.9,186.8 68.9,184.5 68.9,182.9 72.9,185.2 	"/>
	<polygon class="st9" points="76.6,192.6 68.9,188.2 68.9,186.6 76.6,191 	"/>
	<polygon class="st9" points="76.2,196.1 68.9,191.9 68.9,190.3 76.2,194.5 	"/>
	<polygon class="st9" points="110.5,215.8 113.6,217.6 113.6,216 110.5,214.2 	"/>
	<polygon class="st9" points="101.3,210.5 108.3,214.5 108.3,212.9 101.3,208.9 	"/>
	<polygon class="st9" points="93.4,267.8 105.2,274.6 105.1,273 93.4,266.2 	"/>
	<polygon class="st9" points="85.3,263.2 90,265.9 90,264.2 85.3,261.6 	"/>
</g>
<path class="st0" d="M29.4,350.7c-1,0-2-0.3-2.9-0.8L1.3,335.4c-1.2-0.7-1.6-2.2-0.9-3.4c0.2-0.4,0.5-0.7,0.9-0.9l25.2-14.6
	c1.8-1,4-1,5.8,0l25.2,14.6c1.2,0.7,1.6,2.2,0.9,3.4c-0.2,0.4-0.5,0.7-0.9,0.9L32.3,350C31.4,350.5,30.4,350.7,29.4,350.7z
	 M29.4,316.7c-0.9,0-1.7,0.2-2.4,0.6L1.7,331.9c-0.7,0.4-1,1.3-0.6,2.1c0.1,0.2,0.3,0.4,0.6,0.6l25.2,14.6c1.5,0.9,3.3,0.9,4.8,0
	L57,334.6c0.5-0.3,0.8-0.8,0.8-1.3c0-0.6-0.3-1.1-0.8-1.3l-25.2-14.6C31.1,316.9,30.2,316.7,29.4,316.7z"/>
<path class="st0" d="M276.1,315.6c-1.1,0-2.1-0.3-3-0.8L247.5,300c-1-0.6-1.4-1.9-0.8-3c0.2-0.3,0.5-0.6,0.8-0.8l7.8-4.5
	c1.9-1.1,4.1-1.1,6,0l25.6,14.8c1,0.6,1.4,1.9,0.8,3c-0.2,0.3-0.5,0.6-0.8,0.8l-7.8,4.5C278.2,315.3,277.1,315.5,276.1,315.6z
	 M258.3,291.9c-0.9,0-1.8,0.2-2.5,0.7l-7.8,4.5c-0.6,0.3-0.8,1.1-0.4,1.7c0.1,0.2,0.3,0.3,0.4,0.4l25.6,14.8c1.6,0.9,3.4,0.9,5,0
	l7.8-4.5c0.4-0.2,0.6-0.6,0.6-1.1c0-0.4-0.2-0.9-0.6-1.1l-25.6-14.8C260,292.1,259.1,291.9,258.3,291.9z"/>
<path class="st0" d="M239.8,292.5c-1.1,0-2.1-0.3-3-0.8L211.2,277c-1-0.6-1.4-1.9-0.8-3c0.2-0.3,0.5-0.6,0.8-0.8l7.8-4.5
	c1.9-1.1,4.1-1.1,6,0l25.6,14.8c1,0.6,1.4,1.9,0.8,3c-0.2,0.3-0.5,0.6-0.8,0.8l-7.8,4.5C241.9,292.3,240.8,292.5,239.8,292.5z
	 M222,268.9c-0.9,0-1.8,0.2-2.5,0.7l-7.8,4.5c-0.6,0.4-0.8,1.1-0.4,1.7c0.1,0.2,0.3,0.3,0.4,0.4l25.6,14.8c1.6,0.9,3.5,0.9,5.1,0
	l7.8-4.5c0.4-0.2,0.6-0.6,0.6-1.1c0-0.4-0.2-0.9-0.6-1.1l-25.6-14.8C223.8,269.1,222.9,268.9,222,268.9z"/>
<path class="st0" d="M86.1,366.4c-1.1,0-2.1-0.3-3-0.8l-25.6-14.8c-1-0.6-1.4-1.9-0.8-3c0.2-0.3,0.5-0.6,0.8-0.8l7.8-4.5
	c1.9-1.1,4.1-1.1,6,0L97,357.3c1,0.6,1.4,1.9,0.8,3c-0.2,0.3-0.5,0.6-0.8,0.8l-7.8,4.5C88.2,366.1,87.2,366.4,86.1,366.4z
	 M68.4,342.7c-0.9,0-1.8,0.2-2.5,0.7l-7.8,4.5c-0.6,0.3-0.8,1.1-0.5,1.7c0.1,0.2,0.3,0.4,0.5,0.5l25.6,14.8c1.5,0.9,3.5,0.9,5,0
	l7.8-4.5c0.6-0.3,0.8-1.1,0.5-1.7c-0.1-0.2-0.3-0.4-0.5-0.5l-25.6-14.8C70.1,342.9,69.3,342.7,68.4,342.7z"/>
<path class="st0" d="M67.6,378.7c-1.1,0-2.1-0.3-3-0.8L39,363.1c-1-0.6-1.4-1.9-0.8-3c0.2-0.3,0.5-0.6,0.8-0.8l7.8-4.5
	c1.9-1.1,4.1-1.1,6,0l25.6,14.8c1,0.6,1.4,1.9,0.8,3c-0.2,0.3-0.5,0.6-0.8,0.8l-7.8,4.5C69.7,378.4,68.7,378.7,67.6,378.7z
	 M49.8,355c-0.9,0-1.8,0.2-2.5,0.7l-7.8,4.5c-0.6,0.3-0.8,1.1-0.4,1.7c0.1,0.2,0.3,0.3,0.4,0.4l25.6,14.8c1.6,0.9,3.5,0.9,5.1,0
	l7.8-4.5c0.6-0.3,0.8-1.1,0.5-1.7c-0.1-0.2-0.3-0.4-0.5-0.5l-25.6-14.8C51.6,355.3,50.7,355,49.8,355z"/>
</svg>
